<svg width="30" height="30" viewBox="0 0 24 24" fill="none" xmlns="http://www.w3.org/2000/svg">
<g opacity="0.56">
<circle cx="12" cy="12" r="12" fill="white"/>
<circle cx="12" cy="12" r="11.5" stroke="black" stroke-opacity="0.6"/>
</g>
<path d="M16.2 7.80688C16.0754 7.68205 15.9063 7.61189 15.73 7.61189C15.5536 7.61189 15.3845 7.68205 15.26 7.80688L12 11.0602L8.73998 7.80021C8.61543 7.67538 8.44633 7.60522 8.26998 7.60522C8.09364 7.60522 7.92453 7.67538 7.79998 7.80021C7.53998 8.06021 7.53998 8.48021 7.79998 8.74021L11.06 12.0002L7.79998 15.2602C7.53998 15.5202 7.53998 15.9402 7.79998 16.2002C8.05998 16.4602 8.47998 16.4602 8.73998 16.2002L12 12.9402L15.26 16.2002C15.52 16.4602 15.94 16.4602 16.2 16.2002C16.46 15.9402 16.46 15.5202 16.2 15.2602L12.94 12.0002L16.2 8.74021C16.4533 8.48688 16.4533 8.06021 16.2 7.80688Z" fill="black" fill-opacity="0.6"/>
</svg>
